<mxfile host="app.diagrams.net" modified="2024-01-30T14:04:47.761Z" agent="Mozilla/5.0 (Windows NT 10.0; Win64; x64) AppleWebKit/537.36 (KHTML, like Gecko) Chrome/121.0.0.0 Safari/537.36 Edg/121.0.0.0" etag="mOIstEQT-3zu9bBBk7R8" version="23.0.2" type="device">
  <diagram name="Page-1" id="c8e8U6AA08p6fU8yXLN-">
    <mxGraphModel dx="2066" dy="1111" grid="1" gridSize="10" guides="1" tooltips="1" connect="1" arrows="1" fold="1" page="1" pageScale="1" pageWidth="1169" pageHeight="827" math="0" shadow="0">
      <root>
        <mxCell id="0" />
        <mxCell id="1" parent="0" />
        <mxCell id="CB_umm8Mm3fmit-aHScU-3" value="locations-api" style="rounded=0;whiteSpace=wrap;html=1;" vertex="1" parent="1">
          <mxGeometry x="561" y="321" width="200" height="80" as="geometry" />
        </mxCell>
        <mxCell id="CB_umm8Mm3fmit-aHScU-4" value="persons-api" style="rounded=0;whiteSpace=wrap;html=1;" vertex="1" parent="1">
          <mxGeometry x="561" y="161" width="200" height="80" as="geometry" />
        </mxCell>
        <mxCell id="CB_umm8Mm3fmit-aHScU-5" value="locations-grpc-server" style="rounded=0;whiteSpace=wrap;html=1;" vertex="1" parent="1">
          <mxGeometry x="561" y="641" width="200" height="80" as="geometry" />
        </mxCell>
        <mxCell id="CB_umm8Mm3fmit-aHScU-6" value="frontend" style="rounded=0;whiteSpace=wrap;html=1;" vertex="1" parent="1">
          <mxGeometry x="201" y="161" width="200" height="80" as="geometry" />
        </mxCell>
        <mxCell id="CB_umm8Mm3fmit-aHScU-7" value="" style="endArrow=classic;html=1;rounded=0;entryX=1;entryY=0.5;entryDx=0;entryDy=0;" edge="1" parent="1" source="CB_umm8Mm3fmit-aHScU-4" target="CB_umm8Mm3fmit-aHScU-6">
          <mxGeometry width="50" height="50" relative="1" as="geometry">
            <mxPoint x="555" y="202" as="sourcePoint" />
            <mxPoint x="421" y="211" as="targetPoint" />
          </mxGeometry>
        </mxCell>
        <mxCell id="CB_umm8Mm3fmit-aHScU-19" value="REST" style="edgeLabel;html=1;align=center;verticalAlign=middle;resizable=0;points=[];" vertex="1" connectable="0" parent="CB_umm8Mm3fmit-aHScU-7">
          <mxGeometry x="-0.0958" y="-2" relative="1" as="geometry">
            <mxPoint as="offset" />
          </mxGeometry>
        </mxCell>
        <mxCell id="CB_umm8Mm3fmit-aHScU-9" value="DATABASE" style="shape=cylinder3;whiteSpace=wrap;html=1;boundedLbl=1;backgroundOutline=1;size=15;" vertex="1" parent="1">
          <mxGeometry x="921" y="161" width="120" height="240" as="geometry" />
        </mxCell>
        <mxCell id="CB_umm8Mm3fmit-aHScU-10" value="" style="endArrow=classic;html=1;rounded=0;entryX=1;entryY=0.5;entryDx=0;entryDy=0;exitX=-0.011;exitY=0.169;exitDx=0;exitDy=0;exitPerimeter=0;" edge="1" parent="1" source="CB_umm8Mm3fmit-aHScU-9" target="CB_umm8Mm3fmit-aHScU-4">
          <mxGeometry width="50" height="50" relative="1" as="geometry">
            <mxPoint x="321" y="381" as="sourcePoint" />
            <mxPoint x="371" y="331" as="targetPoint" />
          </mxGeometry>
        </mxCell>
        <mxCell id="CB_umm8Mm3fmit-aHScU-11" value="" style="endArrow=classic;html=1;rounded=0;entryX=1;entryY=0.5;entryDx=0;entryDy=0;" edge="1" parent="1" target="CB_umm8Mm3fmit-aHScU-3">
          <mxGeometry width="50" height="50" relative="1" as="geometry">
            <mxPoint x="921" y="361" as="sourcePoint" />
            <mxPoint x="371" y="331" as="targetPoint" />
          </mxGeometry>
        </mxCell>
        <mxCell id="CB_umm8Mm3fmit-aHScU-12" value="Kafka Server" style="rounded=0;whiteSpace=wrap;html=1;" vertex="1" parent="1">
          <mxGeometry x="561" y="481" width="200" height="80" as="geometry" />
        </mxCell>
        <mxCell id="CB_umm8Mm3fmit-aHScU-13" value="" style="endArrow=classic;html=1;rounded=0;" edge="1" parent="1">
          <mxGeometry width="50" height="50" relative="1" as="geometry">
            <mxPoint x="680" y="640" as="sourcePoint" />
            <mxPoint x="681" y="561" as="targetPoint" />
          </mxGeometry>
        </mxCell>
        <mxCell id="CB_umm8Mm3fmit-aHScU-14" value="" style="endArrow=classic;html=1;rounded=0;entryX=0.59;entryY=1;entryDx=0;entryDy=0;entryPerimeter=0;exitX=0.59;exitY=-0.008;exitDx=0;exitDy=0;exitPerimeter=0;" edge="1" parent="1" source="CB_umm8Mm3fmit-aHScU-12" target="CB_umm8Mm3fmit-aHScU-3">
          <mxGeometry width="50" height="50" relative="1" as="geometry">
            <mxPoint x="321" y="381" as="sourcePoint" />
            <mxPoint x="371" y="331" as="targetPoint" />
          </mxGeometry>
        </mxCell>
        <mxCell id="CB_umm8Mm3fmit-aHScU-16" value="mobile clients" style="rounded=0;whiteSpace=wrap;html=1;" vertex="1" parent="1">
          <mxGeometry x="201" y="481" width="200" height="80" as="geometry" />
        </mxCell>
        <mxCell id="CB_umm8Mm3fmit-aHScU-17" value="" style="endArrow=classic;html=1;rounded=0;exitX=1;exitY=0.5;exitDx=0;exitDy=0;entryX=0;entryY=0.5;entryDx=0;entryDy=0;" edge="1" parent="1" source="CB_umm8Mm3fmit-aHScU-16" target="CB_umm8Mm3fmit-aHScU-3">
          <mxGeometry width="50" height="50" relative="1" as="geometry">
            <mxPoint x="321" y="381" as="sourcePoint" />
            <mxPoint x="371" y="331" as="targetPoint" />
            <Array as="points">
              <mxPoint x="441" y="361" />
            </Array>
          </mxGeometry>
        </mxCell>
        <mxCell id="CB_umm8Mm3fmit-aHScU-20" value="REST" style="edgeLabel;html=1;align=center;verticalAlign=middle;resizable=0;points=[];" vertex="1" connectable="0" parent="CB_umm8Mm3fmit-aHScU-17">
          <mxGeometry x="0.4923" y="1" relative="1" as="geometry">
            <mxPoint as="offset" />
          </mxGeometry>
        </mxCell>
        <mxCell id="CB_umm8Mm3fmit-aHScU-18" value="" style="endArrow=classic;html=1;rounded=0;entryX=0;entryY=0.5;entryDx=0;entryDy=0;exitX=1;exitY=0.5;exitDx=0;exitDy=0;" edge="1" parent="1" source="CB_umm8Mm3fmit-aHScU-16" target="CB_umm8Mm3fmit-aHScU-5">
          <mxGeometry width="50" height="50" relative="1" as="geometry">
            <mxPoint x="321" y="381" as="sourcePoint" />
            <mxPoint x="371" y="331" as="targetPoint" />
            <Array as="points">
              <mxPoint x="441" y="681" />
            </Array>
          </mxGeometry>
        </mxCell>
        <mxCell id="CB_umm8Mm3fmit-aHScU-21" value="GRPC" style="edgeLabel;html=1;align=center;verticalAlign=middle;resizable=0;points=[];" vertex="1" connectable="0" parent="CB_umm8Mm3fmit-aHScU-18">
          <mxGeometry x="0.5133" relative="1" as="geometry">
            <mxPoint as="offset" />
          </mxGeometry>
        </mxCell>
        <mxCell id="CB_umm8Mm3fmit-aHScU-22" value="" style="endArrow=classic;html=1;rounded=0;exitX=0.392;exitY=1.021;exitDx=0;exitDy=0;exitPerimeter=0;" edge="1" parent="1" source="CB_umm8Mm3fmit-aHScU-3">
          <mxGeometry width="50" height="50" relative="1" as="geometry">
            <mxPoint x="400" y="420" as="sourcePoint" />
            <mxPoint x="640" y="480" as="targetPoint" />
          </mxGeometry>
        </mxCell>
      </root>
    </mxGraphModel>
  </diagram>
</mxfile>
